<svg width="297" height="213" viewBox="0 0 297 213" fill="none" xmlns="http://www.w3.org/2000/svg">
<path fill-rule="evenodd" clip-rule="evenodd" d="M126.703 89.7577C123.509 92.0727 124.017 96.6281 124.979 99.9376C126.395 104.811 129.214 109.322 132.431 113.211C138.137 120.109 147.825 127.855 156.754 121.799C164.706 116.405 169.722 105.522 171.454 96.3547C171.989 93.5217 172.702 89.3004 170.187 87.1707C166.47 84.0225 159.913 84.5952 155.426 85.0005C152.471 85.2672 149.62 86.173 146.699 85.748C139.914 84.7591 132.362 85.6547 126.703 89.7577Z" fill="#FFE202"/>
<path fill-rule="evenodd" clip-rule="evenodd" d="M264.275 125.857C257.806 134.064 246.807 135.36 237.038 135.28C231.173 135.231 225.295 134.79 219.545 133.595C216.444 132.95 213.365 132.096 210.369 131.07C208.391 130.393 205.445 130.054 204.603 127.934C202.382 122.34 204.016 115.325 204.93 109.647C205.396 106.759 205.745 103.853 206.198 100.963C206.487 99.1138 206.626 97.0679 207.401 95.3378C208.308 93.3112 209.454 93.7158 211.374 94.2756C214.018 95.0476 216.733 95.3684 219.451 95.7835C226.086 96.7966 231.874 98.8397 237.904 101.736C243.866 104.598 249.65 107.425 254.968 111.406C257.663 113.423 259.984 115.613 262.148 118.184C263.819 120.171 266.312 123.272 264.275 125.857ZM235.996 162.307C235.944 163.191 225.805 160.523 224.471 160.224C215.716 158.261 206.788 156.024 198.524 152.476C190.809 149.165 184.012 145.376 177.941 139.493C175.112 136.751 172.567 133.863 170.131 130.787C168.911 129.246 167.243 129.425 165.882 128.121C164.658 126.947 163.719 126.03 164.101 124.276C167.161 125.082 172.81 130.149 175.982 127.59C177.789 126.132 175.282 124.608 174.125 123.763C171.949 122.174 170.088 120.213 168.358 118.155C171.328 118.731 174.093 119.843 176.677 121.391C177.825 122.079 181.761 124.573 182.678 122.196C183.242 120.732 180.573 118.893 179.741 118.083C177.697 116.095 175.492 113.774 174.407 111.101C177.089 110.479 179.617 112.552 181.444 114.24C183.471 116.115 185.956 118.082 187.656 120.242C188.533 121.356 188.724 122.672 189.409 123.873C190.18 125.225 191.413 126.384 192.592 127.384C194.863 129.311 197.519 130.731 200.244 131.904C206.474 134.586 213.15 136.484 219.79 137.816C223.048 138.469 226.225 138.77 229.532 138.881C232.101 138.967 233.238 139.736 234.219 142.103C236.874 148.51 236.392 155.557 235.996 162.307ZM159.746 113.494C158.261 114.884 156.33 115.756 154.777 117.092C153.411 118.268 151.835 119.523 150.31 120.474C148.681 121.489 147.465 120.777 145.999 119.859C144.278 118.781 142.3 118.344 140.527 117.38C134.399 114.045 126.902 105.872 128.046 98.368C128.531 95.1876 130.175 92.0581 133.161 90.6147C135.873 89.3047 139.815 88.5773 142.716 89.6728C144.353 90.2908 145.524 91.6549 146.572 92.9961C147.795 94.5595 148.263 94.3131 149.508 92.8052C151.737 90.1076 155.411 87.741 159.043 87.7979C160.848 87.8266 162.642 88.207 164.268 88.9563C164.488 89.058 164.611 89.3654 164.832 89.4697C165.104 89.5978 165.55 89.3314 165.738 89.4511C166.215 89.7525 166.69 90.694 166.965 91.172C168.066 93.0891 170.051 96.8489 168.051 98.4632C168.05 98.4639 168.14 100.647 168.113 100.896C167.972 102.199 167.521 103.274 166.941 104.465C165.199 108.044 162.628 110.799 159.746 113.494ZM162.709 143.772C161.301 144.209 159.785 139.799 161.135 139.095C162.423 138.423 163.983 143.376 162.709 143.772ZM140.605 138.498C140.117 140.164 139.911 142.055 138.719 143.411C137.628 142.116 137.52 139.727 138.579 138.395C139.183 137.636 141.138 136.678 140.605 138.498ZM185.64 109.308C185.633 109.35 187.334 110.164 186.504 111.054C185.37 112.269 185.526 109.904 185.64 109.308ZM192.671 95.7302C192.652 97.4146 189.086 97.0079 189.111 95.3136C189.142 93.2284 192.692 93.9443 192.671 95.7302ZM188.414 81.6514C188.768 80.1091 194.97 77.9636 194.801 80.6516C194.717 81.9992 187.666 84.9305 188.414 81.6514ZM124.825 133.955C124.13 134.79 123.142 135.12 122.309 135.762C121.435 136.434 120.81 137.307 120.047 138.096C117.951 140.263 115.427 142.044 113.165 144.036C109.008 147.695 105.025 151.63 100.415 154.734C92.177 160.281 82.6238 163.314 73.1404 165.97C72.3547 166.19 70.0916 167.079 69.3143 166.417C68.4759 165.704 68.9023 163.193 68.9409 162.244C69.0981 158.352 69.5519 154.414 69.5028 150.528C69.4824 148.931 69.015 146.662 69.8477 145.202C70.7777 143.571 73.3741 143.093 74.98 142.48C79.8617 140.614 84.5641 137.466 88.8762 134.552C94.1769 130.968 99.5303 127.325 104.985 123.98C110.33 120.703 116.225 118.508 122.186 116.636C122.462 117.217 119.618 119.084 119.293 119.346C117.733 120.602 116.036 121.903 114.879 123.561C114.059 124.734 113.218 127.389 115.482 127.457C116.579 127.49 118.201 126.429 119.195 126.086C120.838 125.519 122.532 125.121 124.25 124.862C122.773 126.489 117.764 129.411 118.676 132.117C119.56 134.742 124.674 131.678 126.434 131.678C126.145 132.594 125.42 133.24 124.825 133.955ZM64.4087 141.283C61.1335 142.435 57.7766 143.089 54.3965 143.833C51.1747 144.542 48.1967 145.076 44.8966 144.661C40.3406 144.088 35.2985 142.201 34.7209 137.024C34.0359 130.89 38.368 125.253 42.0878 120.852C46.6151 115.497 51.6986 110.71 57.2081 106.376C62.7113 102.046 68.6514 98.2284 74.8743 95.0055C79.6087 92.5536 84.9557 91.065 89.9616 89.2247C90.914 88.8749 93.5481 87.6449 94.4387 88.6643C95.1588 89.4886 94.179 90.8618 93.8509 91.6271C93.2108 93.1193 93.1228 94.6216 92.9575 96.2236C92.2195 103.378 91.3309 110.531 90.9221 117.716C90.8084 119.719 90.6077 121.814 90.7245 123.817C90.7891 124.927 91.3667 126.341 90.9821 127.425C90.2427 129.508 86.8567 130.886 85.062 131.817C81.8497 133.483 78.4478 134.726 75.2021 136.319C71.6378 138.069 68.1671 139.961 64.4087 141.283ZM109.83 94.7942C110.729 94.6707 112.075 94.4258 112.877 95.0083C113.922 95.7677 113.648 96.8243 112.682 97.3753C111.92 97.8108 110.136 97.9297 109.383 97.5346C108.1 96.8619 108.317 95.0023 109.83 94.7942ZM114.808 111.361C114.082 112.571 111.427 113.365 111.658 111.107C111.856 109.174 116.146 109.133 114.808 111.361ZM113.823 77.2765C114.991 77.7288 117.11 78.1159 117.456 79.6182C117.778 81.0163 116.454 80.924 115.497 80.539C114.711 80.2232 111.208 77.2522 113.823 77.2765ZM296.793 130.613C296.111 127.959 296.63 125.02 296.254 122.302C295.889 119.666 295.231 117.245 294.289 114.761C292.201 109.263 289.809 104.313 286.425 99.4879C280.052 90.4007 272.658 82.3964 263.729 75.7591C254.914 69.2066 245.153 63.8813 234.813 60.1492C223.849 56.1912 212.812 54.8138 201.25 54.0551C197.796 53.8287 194.347 53.5603 190.913 53.1241C188.404 52.8054 185.258 52.4128 182.777 53.1813C181.219 53.6645 180.348 55.0236 182.046 55.9157C183.25 56.5481 184.826 56.6239 186.156 56.7919C184.549 61.8944 181.936 67.0147 177.794 70.5282C173.751 73.9585 168.341 75.1344 163.238 76.0044C160.471 76.4756 157.372 76.8406 154.563 76.6371C152.786 76.509 151.4 75.6864 150.683 77.5161C150.185 78.7875 149.95 80.1825 149.294 78.2629C148.519 75.9935 148.138 76.0079 145.725 75.3632C140.791 74.0451 135.134 72.8425 130.829 69.9916C126.363 67.034 124.81 62.2495 122.317 57.7942C121.7 56.693 119.84 54.4643 120.791 53.2023C121.66 52.0485 124.486 52.1636 125.78 52.0432C127.146 51.9162 128.52 51.9109 129.89 51.8576C130.684 51.8271 132.281 52.1524 131.962 50.9666C131.48 49.1793 126.317 49.4085 125.035 49.3794C122.651 49.326 120.234 49.3811 117.862 49.6433C106.1 50.9441 94.2317 53.3494 82.8498 56.5568C60.7668 62.7794 39.3794 74.2455 23.2636 90.7642C7.79377 106.621 2.89273 133.007 12.4028 153.253C17.3452 163.775 28.0709 168.097 38.4681 171.588C43.9523 173.429 49.7594 174.87 55.5893 174.522C58.3869 174.355 61.0413 173.602 63.7697 173.035C64.9597 172.787 66.3139 172.392 67.5362 172.492C68.4612 172.567 69.3501 173.417 70.2179 172.965C70.8338 172.645 71.1016 171.726 71.8543 171.334C72.7583 170.864 73.8539 170.694 74.8301 170.457C77.5431 169.798 80.1701 168.729 82.8221 167.853C85.5645 166.947 88.1526 165.78 90.7839 164.6C92.1124 164.004 95.1869 161.581 96.053 163.352C96.4474 164.161 96.2793 165.72 96.3755 166.568C96.5439 168.051 96.7418 169.531 96.9584 171.007C97.4349 174.258 98.0055 177.496 98.5902 180.73C99.6454 186.564 101.006 192.149 103.28 197.637C105.095 202.019 106.689 206.986 110.061 210.473C111.533 211.994 113.541 212.679 115.652 212.201C118.053 211.657 119.248 209.476 120.706 207.712C123.913 203.831 129.208 200.858 134.097 199.787C140.084 198.477 145.917 200.394 151.632 202.023C157.677 203.747 163.831 205.389 169.765 207.461C175.294 209.392 181.264 212.244 187.26 211.996C192.49 211.78 197.374 207.524 201.145 204.28C204.933 201.022 209.669 196.251 215.115 196.635C217.819 196.825 220.284 198.13 222.918 198.66C225.81 199.243 228.887 199.325 231.828 199.543C235.478 199.812 243.645 198.86 244.996 194.469C245.196 193.817 245.197 192.475 244.337 192.215C243.545 191.975 243.141 192.9 242.392 192.858C240.866 192.772 239.674 190.113 238.836 189.083C235.454 184.926 230.815 181.826 227.02 178.07C222.735 173.83 219.077 168.693 215.848 163.627C217.308 163.247 218.882 163.878 220.295 164.177C222.012 164.54 223.685 164.98 225.376 165.445C227.241 165.959 229.132 166.312 231.024 166.703C232.436 166.994 234.31 167.083 235.584 167.791C236.696 168.409 237.318 169.073 238.698 169.252C240.103 169.435 241.545 169.281 242.956 169.272C246.772 169.246 250.58 169.175 254.378 168.772C267.799 167.346 282.025 161.669 290.095 150.403C292.29 147.339 294.058 143.944 295.176 140.342C296.048 137.529 297.552 133.566 296.793 130.613Z" fill="#3A3A3A"/>
<path fill-rule="evenodd" clip-rule="evenodd" d="M141.48 33.1764C139.092 33.9176 136.269 33.0455 134.896 30.9137C133.5 28.746 132.545 26.2376 132.353 23.6555C132.169 21.1815 132.731 18.6766 134.19 16.6454C135.743 14.4848 138.907 12.0631 141.744 12.8133C142.342 12.9716 142.882 13.3524 143.418 13.7303C143.987 14.1311 144.551 14.5287 145.173 14.6529C145.333 14.6848 145.445 14.715 145.528 14.7371C145.641 14.7673 145.701 14.7834 145.754 14.7711C145.816 14.7571 145.868 14.7062 145.981 14.5971C146.046 14.5346 146.13 14.4532 146.246 14.349C146.486 14.1346 146.718 13.8117 146.945 13.4959H146.945C147.098 13.2836 147.248 13.0741 147.397 12.9032C147.684 12.5744 147.97 12.242 148.257 11.909C150.102 9.76837 151.982 7.58668 154.237 5.89357C158.91 2.38538 165.12 0.728423 170.917 0.810785C174.444 0.860721 177.75 1.90655 181.036 3.09551C181.312 3.19528 181.589 3.29431 181.868 3.39369L181.869 3.39404C184.508 4.33596 187.23 5.30749 189.344 7.19469C193.547 10.9485 194.642 17.1637 195.33 22.481C196.074 28.2393 194.022 33.1933 191.896 38.3255V38.3262L191.896 38.3273V38.3276C191.572 39.1088 191.247 39.8938 190.93 40.6862C188.682 46.3006 184.557 50.849 179.654 54.3147C177.085 56.13 174.246 57.226 171.276 58.1868C170.659 58.3861 170.047 58.5995 169.435 58.8125H169.435H169.435C167.052 59.6421 164.677 60.4689 162.108 60.465C157.206 60.458 150.93 58.1296 148.841 53.2998C147.891 51.1006 148.817 50.7058 150.719 51.901C151.052 52.1098 151.383 52.3207 151.713 52.5313V52.5317H151.714L151.715 52.5327C154.13 54.0705 156.529 55.5991 159.365 56.2753C165.62 57.7674 173.111 55.4559 178.596 52.4057C184.078 49.3565 187.759 44.7755 190.219 39.0719C192.701 33.3175 193.665 27.6473 192.708 21.444C191.897 16.1868 190.284 11.3847 185.546 8.53101C175.319 2.37124 161.54 2.86755 152.446 10.8727C151.198 11.9701 149.965 13.0379 148.68 14.0861C147.863 14.7522 146.901 15.5513 147.02 16.703C147.046 16.9571 147.205 17.3982 147.383 17.8926C147.897 19.3188 148.572 21.1917 146.692 20.3245C145.917 19.9669 145.275 19.4802 144.643 19.0005C143.601 18.2102 142.584 17.4389 141.036 17.2964C138.389 17.0522 135.232 19.0854 134.44 21.6447C133.685 24.0868 135.032 27.4279 137.141 28.8285C138.328 29.6166 139.623 29.578 140.963 29.538C141.097 29.5342 141.233 29.53 141.368 29.5268C141.471 29.5244 141.6 29.5177 141.747 29.51C142.648 29.4622 144.222 29.3794 144.641 30.0486C145.503 31.4253 142.462 32.8722 141.48 33.1764ZM173.343 44.0702C173.792 43.189 174.235 42.3176 174.737 41.5302C174.97 41.1649 175.35 40.9125 175.713 40.6708H175.714C175.818 40.6013 175.922 40.5325 176.02 40.4623C177.246 42.3734 176.035 44.4207 174.991 46.1838C174.87 46.3884 174.751 46.5891 174.639 46.7853C174.308 47.3608 173.986 47.9602 173.661 48.5648C172.966 49.8566 172.259 51.1715 171.439 52.3274C169.439 55.1446 165.089 52.0969 164.96 49.2014C164.861 46.9849 166.431 47.9496 167.439 48.7775C168.476 49.6302 168.967 49.8425 170.055 48.9112C171.516 47.6591 172.44 45.8444 173.343 44.0702ZM161.568 36.2632C162.008 33.3561 160.017 35.6136 159.592 36.9506C159.066 38.6003 158.631 40.9304 159.426 42.5675C160.886 45.5725 165 44.1404 166.98 42.544C167.909 41.7955 169.209 40.2363 169.165 38.9368C169.088 36.6758 167.347 38.0315 166.275 38.8653H166.275C166.139 38.9716 166.013 39.0695 165.903 39.1502C165.858 39.1828 165.811 39.2176 165.762 39.2541C164.768 39.9882 162.793 41.447 161.635 40.7252C160.572 40.0623 160.998 38.4877 161.334 37.2489C161.434 36.8794 161.526 36.5397 161.568 36.2632ZM167.454 24.5391C169.804 24.0713 172.83 24.3124 174.874 25.6445C177.508 27.3606 174.045 28.5962 172.545 28.7499C170.729 28.9352 168.407 29.058 166.739 28.167C164.375 26.904 165.163 24.996 167.454 24.5391ZM140.629 20.1817C138.833 19.8325 136.326 20.7393 137.562 22.8757C138.485 24.4703 140.759 25.0069 142.539 25.427C142.755 25.4778 142.964 25.5273 143.162 25.5765C145.141 26.0677 146.12 25.3434 145.439 23.161C144.779 21.0488 142.566 20.5586 140.629 20.1817ZM178.141 42.5282C178.306 41.8379 179.27 39.2432 179.921 41.148C180.021 41.4407 180.034 41.8702 180.047 42.3289C180.08 43.488 180.118 44.8352 181.592 44.6394C182.353 44.5387 182.713 43.775 183.047 43.0676C183.213 42.717 183.372 42.3801 183.57 42.1443C185.581 39.7499 184.964 44.2786 184.439 45.4121C183.281 47.91 180.04 49.6313 178.432 46.4621C177.834 45.2833 177.837 43.7954 178.141 42.5282ZM185.711 32.4581H185.711C186.644 33.5414 188.198 35.3476 189.218 34.0393C190.213 32.7623 188.501 30.7835 187.647 29.797C187.61 29.7542 187.574 29.7132 187.541 29.6742C187.516 29.6458 187.49 29.6156 187.463 29.5837C186.691 28.6832 184.712 26.3745 183.706 28.1038C183.078 29.1864 184.552 31.227 185.253 31.9436C185.378 32.071 185.533 32.2514 185.711 32.4581ZM158.313 53.7083C157.35 52.6029 157.451 50.5542 157.996 49.2751C158.44 48.2335 159.183 49.5228 159.614 50.2692C159.719 50.4514 159.805 50.6009 159.864 50.6767C160.057 50.9248 160.334 51.1546 160.618 51.3908C161.211 51.8828 161.836 52.4015 161.795 53.1633C161.695 55.0246 159.159 54.6793 158.313 53.7083Z" fill="#3A3A3A"/>
<path fill-rule="evenodd" clip-rule="evenodd" d="M242.179 39.9517C241.122 39.665 240.067 39.3783 239.017 39.0832C236.574 38.3961 238.882 36.8499 240.333 36.9587C241.456 37.0426 242.553 37.4363 243.632 37.8234C244.109 37.9943 244.583 38.1641 245.053 38.3055C249.748 39.7152 254.1 41.2568 258.486 43.4448C259.14 43.7715 262.022 45.3202 260.115 46.0059C259.114 46.3659 257.1 45.2823 255.689 44.5236C255.239 44.2811 254.85 44.0719 254.575 43.9533C250.593 42.2366 246.375 41.0912 242.179 39.9517ZM282.047 74.7438C266.342 65.0011 250.705 55.4584 232.943 49.8769C232.017 49.5864 231.729 48.7606 232.215 47.9426C232.726 47.0804 233.71 47.112 234.582 47.1401L234.656 47.1425C236.955 47.2152 239.199 47.9409 241.372 48.6438L241.649 48.7333C246.618 50.338 251.352 52.5643 256.019 54.8913C264.202 58.9697 272.076 63.9044 279.294 69.5154C280.803 70.6878 282.35 71.6381 283.991 72.5968C284.093 72.6565 284.199 72.7172 284.307 72.7796C285.321 73.3611 286.577 74.0819 286.942 75.2126C287.97 78.3948 282.783 75.2007 282.047 74.7438ZM28.4604 71.8479C22.7214 76.3128 17.1133 80.9614 11.9249 86.0569C10.0776 87.8711 8.53811 89.9462 7.00001 92.0201C6.2957 92.9697 5.5914 93.919 4.85797 94.8426C4.77936 94.9416 4.69268 95.0574 4.59828 95.1833C4.00796 95.9701 3.12482 97.1475 2.16129 97.0173C0.935161 96.8523 0.687301 94.7405 0.726394 93.8183C0.860307 90.6733 3.73259 87.636 5.7809 85.4705C8.08507 83.0354 10.5486 80.6625 13.0643 78.4453C15.8342 76.0043 18.8402 73.9061 21.9034 71.8522C23.0229 71.1015 24.1248 70.3074 25.2291 69.5118C27.0915 68.1703 28.9591 66.8248 30.9232 65.6776C32.3967 64.8172 34.8434 64.4898 34.0415 67.0799C33.573 68.5931 31.7331 69.7389 30.1277 70.7387C29.5055 71.1261 28.9187 71.4914 28.4604 71.8479ZM7.90469 65.658C11.1353 64.6522 14.1308 63.091 17.1263 61.5297C19.0781 60.5124 21.0303 59.4951 23.0471 58.6318C24.4974 58.0106 25.9689 57.4425 27.4399 56.8744C28.7633 56.3631 30.0863 55.8521 31.3942 55.3029C31.5173 55.251 31.6507 55.2018 31.7879 55.151C32.4729 54.8976 33.2502 54.6098 33.3428 53.8027C33.4699 52.6854 32.8175 52.7187 32.0206 52.7594H32.0202C31.969 52.7619 31.917 52.7647 31.8644 52.7668C30.048 52.8486 28.1274 53.6536 26.3124 54.4144C25.5632 54.7288 24.8315 55.0355 24.1328 55.2805C23.5106 55.4987 22.8878 55.7117 22.2652 55.9244C20.3155 56.5912 18.3714 57.2562 16.4697 58.0714C13.9395 59.1557 11.3557 60.2776 9.07713 61.8385C8.99642 61.894 8.9122 61.9505 8.82587 62.0087C8.07138 62.5165 7.15827 63.1313 6.83191 63.97C6.5052 64.8074 6.68523 66.038 7.90469 65.658Z" fill="#3A3A3A"/>
<path fill-rule="evenodd" clip-rule="evenodd" d="M141.657 44.0878C141.962 43.1922 145.738 33.4008 144.26 33.1056C142.694 32.7922 140.602 38.4734 140.148 39.4998C138.471 43.2905 137.477 47.3577 136.699 51.4239C136.157 54.2551 135.681 57.1555 135.871 60.0499C136.017 62.2745 136.936 62.6113 138.45 63.9743C138.45 57.2176 139.476 50.483 141.657 44.0878Z" fill="#3A3A3A"/>
</svg>
